HIERARCHY
ROOT Hips
{
    OFFSET 0.000000 0.000000 0.000000
    CHANNELS 6 Xposition Yposition Zposition Zrotation Xrotation Yrotation
    JOINT Spine
    {
        OFFSET -0.000000 7.246840 0.000000
        CHANNELS 3 Zrotation Xrotation Yrotation
        JOINT Spine1
        {
            OFFSET -0.000000 20.289354 0.000000
            CHANNELS 3 Zrotation Xrotation Yrotation
            JOINT Neck
            {
                OFFSET -0.000000 20.206032 1.836912
                CHANNELS 3 Zrotation Xrotation Yrotation
                JOINT Head
                {
                    OFFSET -0.000000 12.372654 -1.767522
                    CHANNELS 3 Zrotation Xrotation Yrotation
                    End Site
                    {
                        OFFSET -0.000000 22.094025 0.000000
                    }
                }
            }
            JOINT LeftShoulder
            {
                OFFSET 3.465871 17.201674 -0.568930
                CHANNELS 3 Zrotation Xrotation Yrotation
                JOINT LeftArm
                {
                    OFFSET 14.070313 0.000000 0.000000
                    CHANNELS 3 Zrotation Xrotation Yrotation
                    JOINT LeftForeArm
                    {
                        OFFSET 26.549477 0.000000 0.000000
                        CHANNELS 3 Zrotation Xrotation Yrotation
                        JOINT LeftHand
                        {
                            OFFSET 18.880413 0.000000 0.000000
                            CHANNELS 3 Zrotation Xrotation Yrotation
                            End Site
                            {
                                OFFSET 13.256415 0.000000 0.000000
                            }
                        }
                    }
                }
            }
            JOINT RightShoulder
            {
                OFFSET -3.526370 17.201674 -0.568930
                CHANNELS 3 Zrotation Xrotation Yrotation
                JOINT RightArm
                {
                    OFFSET -14.070313 0.000000 0.000000
                    CHANNELS 3 Zrotation Xrotation Yrotation
                    JOINT RightForeArm
                    {
                        OFFSET -26.549477 0.000000 0.000000
                        CHANNELS 3 Zrotation Xrotation Yrotation
                        JOINT RightHand
                        {
                            OFFSET -18.880413 0.000000 0.000000
                            CHANNELS 3 Zrotation Xrotation Yrotation
                            End Site
                            {
                                OFFSET -13.256415 0.000000 0.000000
                            }
                        }
                    }
                }
            }
        }
    }
    JOINT LeftUpLeg
    {
        OFFSET 8.837609 0.000000 0.000000
        CHANNELS 3 Zrotation Xrotation Yrotation
        JOINT LeftLeg
        {
            OFFSET -0.000000 -41.345005 0.000000
            CHANNELS 3 Zrotation Xrotation Yrotation
            JOINT LeftFoot
            {
                OFFSET -0.000000 -35.500874 0.000000
                CHANNELS 3 Zrotation Xrotation Yrotation
                JOINT LeftToeBase
                {
                    OFFSET -0.000000 -5.744446 13.256415
                    CHANNELS 3 Zrotation Xrotation Yrotation
                    End Site
                    {
                        OFFSET -0.000000 0.000000 3.535044
                    }
                }
            }
        }
    }
    JOINT RightUpLeg
    {
        OFFSET -8.837609 0.000000 0.000000
        CHANNELS 3 Zrotation Xrotation Yrotation
        JOINT RightLeg
        {
            OFFSET -0.000000 -41.345005 0.000000
            CHANNELS 3 Zrotation Xrotation Yrotation
            JOINT RightFoot
            {
                OFFSET -0.000000 -35.500874 0.000000
                CHANNELS 3 Zrotation Xrotation Yrotation
                JOINT RightToeBase
                {
                    OFFSET -0.000000 -5.744446 13.256415
                    CHANNELS 3 Zrotation Xrotation Yrotation
                    End Site
                    {
                        OFFSET -0.000000 0.000000 3.535044
                    }
                }
            }
        }
    }
}
MOTION
Frames:    12
Frame Time:    0.010000
4.124383    82.408562    134.538605    4.051669    1.183083    -8.985280    -0.614650    -11.301062    0.531598    -7.188991    5.391141    0.931421    8.155542    32.592953    -9.785580    2.815622    -15.519087    -8.084048    13.297946    -8.395718    -0.992750    7.905405    57.596607    -102.586845    15.211442    -4.675531    -80.578354    5.368177    4.176769    -75.561058    -3.849479    -8.209932    27.001284    36.073410    53.532116    50.546059    -10.863748    -14.715143    109.802719    7.643099    1.767941    15.592141    -1.751148    8.771099    0.065093    -0.762892    -4.790894    -34.815300    6.478598    -0.217412    27.121487    -0.746328    -2.293677    1.059547    -11.755583    4.482050    6.718224    8.499350    -12.852861    0.379687    1.447562    4.076423    -3.211605    -6.234044    10.105307    10.109071    
4.118879    82.404938    134.510208    4.074975    1.216714    -9.064113    -0.628315    -11.301928    0.689259    -7.232304    5.373058    1.091268    8.960208    32.673489    -10.202761    1.800616    -15.948606    -8.648895    13.198712    -8.352872    -1.008332    7.469952    57.656635    -102.119690    15.211442    -4.675531    -80.578354    5.368177    4.176769    -75.561058    -3.828641    -8.243153    27.085293    35.814590    53.576199    50.630894    -10.863748    -14.715143    109.802719    7.643099    1.767941    15.592141    -1.754860    8.735996    -0.031226    -0.773689    -4.821866    -34.596775    6.470857    -0.250171    27.047226    -0.750392    -2.248951    1.065018    -11.767629    4.424711    6.788677    8.496744    -12.918056    0.307610    1.484538    4.110057    -3.176594    -6.287021    10.240065    10.182500    
4.109622    82.404053    134.480469    4.085650    1.247002    -9.118202    -0.642387    -11.305381    0.841055    -7.277186    5.377694    1.246881    8.901096    32.583992    -10.501784    2.140872    -15.999187    -8.883271    13.116095    -8.271976    -0.972355    7.667351    57.590836    -102.301315    15.211442    -4.675531    -80.578354    5.368177    4.176769    -75.561058    -3.808506    -8.221226    27.081713    35.253780    53.546989    51.130611    -10.863748    -14.715143    109.802719    7.643099    1.767941    15.592141    -1.749226    8.701590    -0.080837    -0.782952    -4.851449    -34.438251    6.474879    -0.238831    26.974854    -0.734473    -2.278512    1.042618    -11.774112    4.378211    6.834309    8.520963    -12.976365    0.300720    1.406028    4.182542    -3.157083    -6.335381    10.248504    10.259800    
4.101458    82.404373    134.455078    4.093728    1.277415    -9.133466    -0.614846    -11.474057    0.962634    -7.353284    5.669828    1.389050    8.529828    32.398262    -10.724737    2.858743    -16.002960    -8.994167    13.032070    -8.333220    -0.941232    7.357321    57.600197    -101.910667    15.211442    -4.675531    -80.578354    5.368177    4.176769    -75.561058    -3.843095    -8.430569    27.405699    35.520805    53.511814    50.751648    -10.863748    -14.715143    109.802719    7.643099    1.767941    15.592141    -1.748599    8.677464    -0.101761    -0.774810    -4.903249    -34.307461    6.451473    -0.259365    26.870388    -0.750944    -2.208750    1.065534    -11.770184    4.321110    6.837677    8.522219    -12.967281    0.290441    1.417600    4.181333    -3.147356    -6.360300    10.356463    10.290171    
4.090315    82.406967    134.426575    4.092567    1.319923    -9.119146    -0.668971    -11.466992    1.092589    -7.333433    5.644801    1.521847    8.439192    32.320229    -11.108655    3.343296    -16.016596    -9.281088    12.924409    -8.335656    -0.980970    6.981547    57.740982    -101.536652    15.211442    -4.675531    -80.578354    5.368177    4.176769    -75.561058    -3.827922    -8.441042    27.549202    35.640503    53.539295    50.491199    -10.863748    -14.715143    109.802719    7.643099    1.767941    15.592141    -1.742551    8.635476    -0.102531    -0.749989    -4.943865    -34.216633    6.416131    -0.278236    26.762999    -0.761067    -2.219288    1.079970    -11.744319    4.245948    6.808262    8.521116    -12.932598    0.307620    1.384699    4.197036    -3.144078    -6.323583    10.252024    10.240438    
4.078311    82.409920    134.400024    4.077984    1.359143    -9.077045    -0.731827    -11.457115    1.210187    -7.274798    5.609865    1.640543    8.336058    32.237377    -11.513633    3.827481    -15.956803    -9.594709    12.769411    -8.264595    -1.049421    7.400898    57.735897    -101.826439    15.211442    -4.675531    -80.578354    5.368177    4.176769    -75.561058    -3.851119    -8.300418    27.573439    35.472168    53.451065    50.577328    -10.863748    -14.715143    109.802719    7.643099    1.767941    15.592141    -1.726910    8.603557    -0.042105    -0.722310    -5.004972    -34.176174    6.366785    -0.289309    26.632788    -0.753545    -2.206720    1.069211    -11.732130    4.207451    6.753198    8.537535    -12.908426    0.389019    1.409918    4.204995    -3.212827    -6.383801    10.392616    10.324759    
4.070368    82.413254    134.380280    4.058010    1.396844    -8.998441    -0.837085    -11.384682    1.321180    -7.097175    5.429246    1.741559    8.167199    32.334667    -11.948293    4.334936    -15.975580    -9.925361    12.471187    -8.070113    -1.162163    7.020555    57.781433    -101.320351    15.211442    -4.675531    -80.578354    5.368177    4.176769    -75.561058    -3.899474    -8.152759    27.648870    35.534733    53.452778    50.428646    -10.863748    -14.715143    109.802719    7.643099    1.767941    15.592141    -1.714659    8.581119    0.005684    -0.676433    -5.067055    -34.159256    6.326755    -0.290365    26.517563    -0.732850    -2.187071    1.039721    -11.694505    4.155787    6.660903    8.557761    -12.860141    0.417101    1.404427    4.192153    -3.214393    -6.234877    10.213596    10.100693    
4.055836    82.416656    134.357742    4.014056    1.438417    -8.895896    -0.901083    -11.398201    1.406757    -6.997433    5.461238    1.830870    8.054515    32.205921    -12.412653    4.813598    -15.876864    -10.310144    12.328434    -8.038531    -1.189976    7.192258    57.799797    -101.389107    15.211442    -4.675531    -80.578354    5.368177    4.176769    -75.561058    -3.945378    -8.068988    27.602039    35.135818    53.413387    50.879219    -10.863748    -14.715143    109.802719    7.643099    1.767941    15.592141    -1.684225    8.564677    0.148113    -0.624278    -5.160105    -34.200035    6.263902    -0.245178    26.343803    -0.752571    -2.165879    1.067558    -11.635694    4.125923    6.549616    8.595917    -12.843890    0.469817    1.385159    4.225916    -3.245828    -6.244473    10.242525    10.113595    
4.044397    82.417931    134.336044    3.972774    1.495197    -8.767151    -0.798079    -11.484931    1.466853    -7.596107    5.895321    1.938812    9.086006    31.117159    -12.959032    4.525224    -15.318563    -10.919121    13.218688    -8.305582    -0.655681    7.078526    57.791714    -102.024818    15.211442    -4.675531    -80.578354    5.368177    4.176769    -75.561058    -3.360688    -8.585277    27.307091    34.942932    53.823662    50.980972    -10.863748    -14.715143    109.802719    7.643099    1.767941    15.592141    -1.660524    8.534626    0.302387    -0.555955    -5.257921    -34.259567    6.211808    -0.270261    26.147432    -0.732200    -2.157879    1.038611    -11.583597    4.083717    6.406560    8.654433    -12.825208    0.504436    1.369177    4.230246    -3.244801    -6.228488    10.277027    10.084701    
4.032548    82.418709    134.316681    3.932524    1.538799    -8.614798    -0.792706    -11.677341    1.506612    -7.644363    6.255936    2.006031    9.022193    31.315887    -13.465020    5.230056    -16.015820    -11.215911    13.253466    -8.400459    -0.626235    6.698522    57.809189    -101.588379    15.211442    -4.675531    -80.578354    5.368177    4.176769    -75.561058    -3.369690    -8.797281    27.524652    35.322647    53.855221    50.605286    -10.863748    -14.715143    109.802719    7.643099    1.767941    15.592141    -1.613614    8.517469    0.456926    -0.546043    -5.357730    -34.380920    6.189487    -0.240717    25.977074    -0.723276    -2.156413    1.025943    -11.503528    4.038325    6.244992    8.611580    -12.707584    0.531178    1.357030    4.202412    -3.269041    -6.090968    10.022941    9.885025    
4.024588    82.418045    134.303711    3.895645    1.586313    -8.425521    -0.869538    -11.672187    1.547168    -7.600696    6.250771    2.051665    8.922833    31.202227    -14.022621    5.918810    -15.913812    -11.638026    13.293549    -8.539734    -0.655573    7.144276    57.984043    -102.023369    15.211442    -4.675531    -80.578354    5.368177    4.176769    -75.561058    -3.339163    -8.773152    27.564167    35.569336    53.911060    50.358292    -10.863748    -14.715143    109.802719    7.643099    1.767941    15.592141    -1.572547    8.492202    0.566080    -0.525097    -5.435788    -34.523438    6.145086    -0.223566    25.865831    -0.715472    -2.193756    1.015109    -11.475665    4.054047    6.049185    8.688719    -12.722805    0.742144    1.279287    4.224884    -3.431945    -5.971884    9.875602    9.705088    
4.016451    82.418671    134.285400    3.861340    1.628426    -8.219050    -0.946116    -11.649832    1.577205    -7.571733    6.251425    2.087835    8.851530    31.051266    -14.619376    6.609571    -15.826530    -12.100183    13.285874    -8.543617    -0.668769    7.136764    57.992825    -101.990807    15.211442    -4.675531    -80.578354    5.368177    4.176769    -75.561058    -3.320218    -8.733416    27.560778    35.751034    53.956787    50.212749    -10.863748    -14.715143    109.802719    7.643099    1.767941    15.592141    -1.524126    8.860763    -2.470914    -0.223722    -6.463799    -30.575552    5.877286    0.179998    24.732674    -0.717583    -2.167139    1.017936    -11.403419    4.015872    5.832139    8.703452    -12.621307    0.771588    1.223437    4.223919    -3.448812    -6.018095    9.913069    9.776690    
